<?xml version="1.0" standalone="no"?><!DOCTYPE svg PUBLIC "-//W3C//DTD SVG 1.1//EN" "http://www.w3.org/Graphics/SVG/1.1/DTD/svg11.dtd"><svg t="1746857791746" class="icon" viewBox="0 0 1024 1024" version="1.1" xmlns="http://www.w3.org/2000/svg" p-id="3990" xmlns:xlink="http://www.w3.org/1999/xlink" width="1024" height="1024"><path d="M62.06976 490.922667c0 47.018667 7.125333 92.074667 20.650667 134.656-1.621333-0.128-2.944-0.256-4.522667-0.256-17.92 0-34.176 6.826667-45.653333 19.285333-14.72 15.914667-21.248 35.541333-18.389334 55.168a67.242667 67.242667 0 0 0 9.130667 25.472 60.970667 60.970667 0 0 0-20.650667 32.341333c-2.773333 10.453333-5.589333 32.170667 9.173334 54.613334a62.08 62.08 0 0 0-2.688 4.48c-8.874667 16.725333-9.386667 35.712-1.578667 53.333333 11.904 26.709333 41.386667 47.701333 98.688 70.272 35.626667 14.037333 68.224 23.04 68.48 23.168 47.146667 12.117333 89.770667 18.218667 126.72 18.218667 60.458667 0 105.6-16.384 134.485333-48.810667 65.621333 11.306667 119.04 5.973333 153.258667 0.256 28.885333 32.213333 73.941333 48.597333 134.272 48.597333 36.864 0 79.530667-6.101333 126.677333-18.261333 0.256-0.085333 32.853333-9.130667 68.48-23.168 57.301333-22.613333 86.784-43.562667 98.688-70.272a59.861333 59.861333 0 0 0-1.578666-53.333333 62.634667 62.634667 0 0 0-2.688-4.48c14.762667-22.4 11.946667-44.16 9.173333-54.613334a61.013333 61.013333 0 0 0-20.650667-32.341333c4.693333-7.722667 7.808-16.128 9.173334-25.472 2.816-19.626667-3.712-39.253333-18.432-55.168a61.184 61.184 0 0 0-45.653334-19.285333l-2.56 0.085333c13.525333-42.496 20.693333-87.552 20.693334-134.485333 0-247.765333-202.069333-448.597333-451.370667-448.597334-249.258667 0-451.328 200.832-451.328 448.597334z m451.328-404.608c224.981333 0 407.381333 181.162667 407.381333 404.608a401.92 401.92 0 0 1-11.52 95.402666l-0.469333-0.64a60.714667 60.714667 0 0 0-47.274667-21.589333c-15.018667 0-30.464 4.906667-45.909333 14.677333-10.24 6.442667-21.589333 18.005333-33.28 32.426667-10.794667-14.933333-25.898667-24.917333-43.221333-27.605333a64.725333 64.725333 0 0 0-10.026667-0.768c-39.509333 0-63.232 34.133333-72.234667 64.768-4.48 10.368-25.898667 57.514667-58.069333 89.514666-49.877333 49.493333-61.696 100.394667-35.84 155.221334a395.733333 395.733333 0 0 1-100.906667-0.256c25.173333-51.712 15.488-104.064-35.968-154.965334-32.213333-32-53.589333-79.146667-58.069333-89.514666-8.96-30.634667-32.725333-64.768-72.277333-64.768-3.328 0-6.656 0.256-9.984 0.768-17.322667 2.688-32.426667 12.672-43.264 27.562666-11.648-14.378667-22.997333-25.941333-33.237334-32.426666-15.445333-9.728-30.890667-14.634667-45.909333-14.634667-18.218667 0-34.56 7.253333-46.165333 20.394667a401.92 401.92 0 0 1-11.093334-93.568c0-223.445333 182.4-404.608 407.338667-404.608z m-144.170667 212.48a58.026667 58.026667 0 0 0-26.837333 109.354666c14.976 7.936 20.864-22.442667 35.669333-27.648 13.269333-4.693333 35.882667 17.024 43.008 3.669334a57.941333 57.941333 0 0 0-23.978666-78.506667 58.282667 58.282667 0 0 0-27.861334-6.826667z m291.84 0a58.026667 58.026667 0 0 0-51.84 85.333333c7.168 13.397333 29.781333-8.32 43.050667-3.626667 14.805333 5.205333 20.736 35.626667 35.754667 27.648a57.984 57.984 0 0 0 23.978666-78.506666 58.24 58.24 0 0 0-50.901333-30.805334zM244.85376 359.381333a37.418667 37.418667 0 0 0-37.418667 37.418667c0 20.650667 16.768 37.418667 37.418667 37.418667a37.418667 37.418667 0 0 0 37.418667-37.418667 37.418667 37.418667 0 0 0-37.418667-37.418667z m539.434667 0a37.504 37.504 0 0 0-37.504 37.418667c0 20.650667 16.853333 37.418667 37.546666 37.418667a37.418667 37.418667 0 0 0 37.376-37.418667 37.418667 37.418667 0 0 0-37.418666-37.418667z m-408.661334 129.578667c-7.68-0.128-11.946667 4.693333-11.946666 17.749333 0 34.56 16.554667 90.666667 60.928 124.757334 8.832-30.378667 57.429333-54.741333 64.341333-51.242667 9.898667 4.949333 9.386667 18.816 25.941333 30.976 16.554667-12.16 15.957333-26.026667 25.813334-30.976 6.954667-3.498667 55.509333 20.864 64.341333 51.242667 44.373333-34.090667 60.928-90.197333 60.928-124.757334 0-52.096-67.541333 27.306667-151.082667 27.648-62.677333-0.256-116.352-45.013333-139.264-45.397333z m-191.189333 128.768c24.746667 15.573333 72.362667 97.066667 89.856 128.768a28.16 28.16 0 0 0 24.832 15.061333c17.834667 0 31.829333-17.664 1.664-40.106666-45.397333-33.706667-29.525333-88.917333-7.850667-92.330667a18.346667 18.346667 0 0 1 2.816-0.170667c19.712 0 28.416 33.706667 28.416 33.706667s25.429333 63.573333 69.205334 107.008c40.192 39.893333 45.312 72.661333 21.162666 113.749333-0.682667-0.170667-0.682667 0.981333-6.314666 9.173334a81.962667 81.962667 0 0 1-30.72 26.24c-21.546667 9.685333-48.597333 11.52-76.074667 11.52-44.245333 0-89.642667-7.808-115.072-14.378667-1.28-0.298667-155.733333-40.789333-136.192-77.738667 3.285333-6.186667 8.704-8.661333 15.530667-8.661333 27.562667 0 77.781333 40.746667 99.328 40.746667 4.821333 0 8.362667-3.669333 9.728-8.661334 9.6-34.346667-139.861333-44.885333-127.317334-92.330666 2.218667-8.405333 8.234667-11.776 16.64-11.776 36.437333 0 118.186667 63.701333 135.381334 63.701333 1.28 0 2.218667-0.384 2.730666-1.194667 8.576-13.738667 4.693333-25.002667-55.850666-61.44-60.501333-36.394667-103.722667-56.661333-79.573334-82.773333 2.773333-3.072 6.698667-4.352 11.52-4.352 36.693333 0 123.477333 78.506667 123.477334 78.506667s23.424 24.234667 37.589333 24.234666a8.704 8.704 0 0 0 7.936-4.48c10.026667-16.853333-93.269333-94.677333-99.114667-126.762666-3.925333-21.76 2.730667-32.768 15.189334-32.768 0 0.341333 7.253333-1.237333 21.077333 7.509333z m692.309333 25.258667c-5.845333 32.085333-109.141333 109.909333-99.114666 126.72 1.877333 3.157333 4.693333 4.522667 7.936 4.522666 14.165333 0 37.546667-24.234667 37.546666-24.234666s86.784-78.506667 123.562667-78.506667c4.778667 0 8.704 1.28 11.477333 4.309333 24.149333 26.154667-19.072 46.421333-79.573333 82.858667-60.544 36.394667-64.426667 47.616-55.850667 61.44 0.512 0.768 1.450667 1.152 2.730667 1.152 17.152 0 98.901333-63.701333 135.338667-63.701333 8.448 0 14.506667 3.370667 16.682666 11.776 12.544 47.445333-136.96 58.026667-127.317333 92.330666 1.365333 4.992 4.906667 8.661333 9.728 8.661334 21.546667 0 71.765333-40.746667 99.328-40.746667 6.826667 0 12.245333 2.474667 15.530667 8.661333 19.584 36.949333-134.954667 77.44-136.192 77.738667-25.429333 6.570667-70.826667 14.336-115.072 14.336-27.136 0-53.802667-1.706667-75.264-11.093333a82.261333 82.261333 0 0 1-31.530667-26.624c-1.706667-2.944-4.352-6.314667-6.058667-8.746667-24.448-41.301333-19.413333-74.154667 20.906667-114.176 43.776-43.477333 69.162667-107.008 69.162667-107.008s8.746667-33.706667 28.416-33.706667a18.432 18.432 0 0 1 2.858666 0.170667c21.674667 3.413333 37.546667 58.624-7.850666 92.373333-30.165333 22.4-16.213333 40.106667 1.706666 40.106667a28.16 28.16 0 0 0 24.789334-15.104c17.493333-31.701333 65.152-113.194667 89.856-128.768 23.850667-15.061333 42.24-7.765333 36.266666 25.258667z" p-id="3991" fill="#475569"></path></svg>